# xmcd
#
# Track frame offsets:
#	150
#	13027
#	22177
#	35097
#	45625
#	56440
#	67830
#	78055
#	92280
#	102360
#
# Disc length: 1500 seconds
#
# Revision: 1
# Processed by: cddbd v1.5.1PL0 Copyright (c) Steve Scherf et al.
# Submitted via: EasyCDDAExtractor 7.0.0.1
#
DISCID=7005da0a
DTITLE=Jim Reeves - Velvet Memories of Jim Reeves
DYEAR=1998
DGENRE=Country
TTITLE0=Four Walls
TTITLE1=I Won't Forget You
TTITLE2=Distant Drums
TTITLE3=Am I That Easy To Forget?
TTITLE4=I Guess I'm Crazy
TTITLE5=Adios Amigo
TTITLE6=I'm Gettin' Better
TTITLE7=Guilty
TTITLE8=Is It Really Over?
TTITLE9=Am I Losing You?
EXTD=
EXTT0=
EXTT1=
EXTT2=
EXTT3=
EXTT4=
EXTT5=
EXTT6=
EXTT7=
EXTT8=
EXTT9=
PLAYORDER=
